<svg xmlns="http://www.w3.org/2000/svg" xmlns:xlink="http://www.w3.org/1999/xlink" contentStyleType="text/css" data-diagram-type="CLASS" height="499px" preserveAspectRatio="none" style="width:264px;height:499px;background:#FFFFFF;" version="1.1" viewBox="0 0 264 499" width="264px" zoomAndPan="magnify"><?plantuml 1.2026.6?><defs/><g><!--class User--><g class="entity" data-qualified-name="User" data-source-line="2" id="ent0001"><rect fill="#F1F1F1" height="96.8906" rx="2.5" ry="2.5" style="stroke:#181818;stroke-width:0.5;" width="211.541" x="22.31" y="7"/><ellipse cx="107.8754" cy="23" fill="#ADD1B2" rx="11" ry="11" style="stroke:#181818;stroke-width:1;"/><path d="M111.9848,29 L104.2661,29 L104.2661,16.6094 L111.9848,16.6094 L111.9848,18.7656 L106.7192,18.7656 L106.7192,21.4375 L111.4848,21.4375 L111.4848,23.5938 L106.7192,23.5938 L106.7192,26.8438 L111.9848,26.8438 L111.9848,29 Z " fill="#000000"/><text fill="#000000" font-family="sans-serif" font-size="14" lengthAdjust="spacing" textLength="31.9102" x="128.3754" y="27.8467">User</text><line style="stroke:#181818;stroke-width:0.5;" x1="23.31" x2="232.851" y1="39" y2="39"/><g data-visibility-modifier="PUBLIC_FIELD"><ellipse cx="33.31" cy="52.6484" fill="none" rx="3" ry="3" style="stroke:#038048;stroke-width:1;"/></g><text fill="#000000" font-family="sans-serif" font-size="14" lengthAdjust="spacing" textLength="142.8096" x="42.31" y="55.9951">id: INT PRIMARY KEY</text><line style="stroke:#181818;stroke-width:0.5;" x1="23.31" x2="232.851" y1="63.2969" y2="63.2969"/><g data-visibility-modifier="PRIVATE_METHOD"><rect fill="#F24D5C" height="6" style="stroke:#C82930;stroke-width:1;" width="6" x="30.31" y="73.9453"/></g><text fill="#000000" font-family="sans-serif" font-size="14" lengthAdjust="spacing" textLength="185.541" x="42.31" y="80.292">username: VARCHAR(255)</text><g data-visibility-modifier="PRIVATE_METHOD"><rect fill="#F24D5C" height="6" style="stroke:#C82930;stroke-width:1;" width="6" x="30.31" y="90.2422"/></g><text fill="#000000" font-family="sans-serif" font-size="14" lengthAdjust="spacing" textLength="153.9111" x="42.31" y="96.5889">email: VARCHAR(255)</text></g><!--class Order--><g class="entity" data-qualified-name="Order" data-source-line="8" id="ent0002"><rect fill="#F1F1F1" height="113.1875" rx="2.5" ry="2.5" style="stroke:#181818;stroke-width:0.5;" width="237.7295" x="9.21" y="180.89"/><ellipse cx="103.8091" cy="196.89" fill="#ADD1B2" rx="11" ry="11" style="stroke:#181818;stroke-width:1;"/><path d="M107.9185,202.89 L100.1997,202.89 L100.1997,190.4994 L107.9185,190.4994 L107.9185,192.6556 L102.6529,192.6556 L102.6529,195.3275 L107.4185,195.3275 L107.4185,197.4838 L102.6529,197.4838 L102.6529,200.7338 L107.9185,200.7338 L107.9185,202.89 Z " fill="#000000"/><text fill="#000000" font-family="sans-serif" font-size="14" lengthAdjust="spacing" textLength="40.0313" x="124.3091" y="201.7367">Order</text><line style="stroke:#181818;stroke-width:0.5;" x1="10.21" x2="245.9395" y1="212.89" y2="212.89"/><g data-visibility-modifier="PUBLIC_FIELD"><ellipse cx="20.21" cy="226.5384" fill="none" rx="3" ry="3" style="stroke:#038048;stroke-width:1;"/></g><text fill="#000000" font-family="sans-serif" font-size="14" lengthAdjust="spacing" textLength="142.8096" x="29.21" y="229.8851">id: INT PRIMARY KEY</text><g data-visibility-modifier="PRIVATE_FIELD"><rect fill="none" height="6" style="stroke:#C82930;stroke-width:1;" width="6" x="17.21" y="239.8353"/></g><text fill="#000000" font-family="sans-serif" font-size="14" lengthAdjust="spacing" textLength="156.6729" x="29.21" y="246.182">order_date: DATETIME</text><g data-visibility-modifier="PRIVATE_FIELD"><rect fill="none" height="6" style="stroke:#C82930;stroke-width:1;" width="6" x="17.21" y="256.1322"/></g><text fill="#000000" font-family="sans-serif" font-size="14" lengthAdjust="spacing" textLength="82.6328" x="29.21" y="262.4789">user_id: INT</text><line style="stroke:#181818;stroke-width:0.5;" x1="10.21" x2="245.9395" y1="269.7806" y2="269.7806"/><g data-visibility-modifier="PRIVATE_METHOD"><rect fill="#F24D5C" height="6" style="stroke:#C82930;stroke-width:1;" width="6" x="17.21" y="280.4291"/></g><text fill="#000000" font-family="sans-serif" font-size="14" lengthAdjust="spacing" textLength="211.7295" x="29.21" y="286.7757">total_amount: DECIMAL(10, 2)</text></g><!--class OrderItem--><g class="entity" data-qualified-name="OrderItem" data-source-line="15" id="ent0003"><rect fill="#F1F1F1" height="113.1875" rx="2.5" ry="2.5" style="stroke:#181818;stroke-width:0.5;" width="242.1592" x="7" y="371.08"/><ellipse cx="87.8794" cy="387.08" fill="#ADD1B2" rx="11" ry="11" style="stroke:#181818;stroke-width:1;"/><path d="M91.9888,393.08 L84.27,393.08 L84.27,380.6894 L91.9888,380.6894 L91.9888,382.8456 L86.7231,382.8456 L86.7231,385.5175 L91.4888,385.5175 L91.4888,387.6738 L86.7231,387.6738 L86.7231,390.9238 L91.9888,390.9238 L91.9888,393.08 Z " fill="#000000"/><text fill="#000000" font-family="sans-serif" font-size="14" lengthAdjust="spacing" textLength="71.9004" x="108.3794" y="391.9267">OrderItem</text><line style="stroke:#181818;stroke-width:0.5;" x1="8" x2="248.1592" y1="403.08" y2="403.08"/><g data-visibility-modifier="PUBLIC_FIELD"><ellipse cx="18" cy="416.7284" fill="none" rx="3" ry="3" style="stroke:#038048;stroke-width:1;"/></g><text fill="#000000" font-family="sans-serif" font-size="14" lengthAdjust="spacing" textLength="142.8096" x="27" y="420.0751">id: INT PRIMARY KEY</text><g data-visibility-modifier="PRIVATE_FIELD"><rect fill="none" height="6" style="stroke:#C82930;stroke-width:1;" width="6" x="15" y="430.0253"/></g><text fill="#000000" font-family="sans-serif" font-size="14" lengthAdjust="spacing" textLength="90.6855" x="27" y="436.372">quantity: INT</text><g data-visibility-modifier="PRIVATE_FIELD"><rect fill="none" height="6" style="stroke:#C82930;stroke-width:1;" width="6" x="15" y="446.3222"/></g><text fill="#000000" font-family="sans-serif" font-size="14" lengthAdjust="spacing" textLength="89.6738" x="27" y="452.6689">order_id: INT</text><line style="stroke:#181818;stroke-width:0.5;" x1="8" x2="248.1592" y1="459.9706" y2="459.9706"/><g data-visibility-modifier="PRIVATE_METHOD"><rect fill="#F24D5C" height="6" style="stroke:#C82930;stroke-width:1;" width="6" x="15" y="470.6191"/></g><text fill="#000000" font-family="sans-serif" font-size="14" lengthAdjust="spacing" textLength="216.1592" x="27" y="476.9657">product_name: VARCHAR(255)</text></g><!--link User to Order--><g class="link" data-entity-1="ent0001" data-entity-2="ent0002" data-link-type="association" data-source-line="22" id="lnk4"><path codeLine="22" d="M128.08,104.22 C128.08,127.66 128.08,156.04 128.08,180.5" fill="none" id="User-Order" style="stroke:#181818;stroke-width:1;"/><text fill="#000000" font-family="sans-serif" font-size="13" lengthAdjust="spacing" textLength="22.9785" x="129.08" y="146.9569">has</text><text fill="#000000" font-family="sans-serif" font-size="13" lengthAdjust="spacing" textLength="8.271" x="119.5606" y="123.8577">1</text><text fill="#000000" font-family="sans-serif" font-size="13" lengthAdjust="spacing" textLength="6.5" x="121.7455" y="169.716">*</text></g><!--link Order to OrderItem--><g class="link" data-entity-1="ent0002" data-entity-2="ent0003" data-link-type="association" data-source-line="23" id="lnk5"><path codeLine="23" d="M128.08,294.44 C128.08,318.49 128.08,346.55 128.08,370.61" fill="none" id="Order-OrderItem" style="stroke:#181818;stroke-width:1;"/><text fill="#000000" font-family="sans-serif" font-size="13" lengthAdjust="spacing" textLength="55.0278" x="129.08" y="337.1469">contains</text><text fill="#000000" font-family="sans-serif" font-size="13" lengthAdjust="spacing" textLength="8.271" x="119.6338" y="313.9673">1</text><text fill="#000000" font-family="sans-serif" font-size="13" lengthAdjust="spacing" textLength="6.5" x="121.7449" y="359.8163">*</text></g><?plantuml-src XP1F2u904CNl-oa6Jre9ANZn9YOaPOLOu4aMNKZGtTBPGqJVlVLF4H9rMzwR_RqtmpYMU8DZongu4u1vMRWGxX8un67anIbiWbJ9fbG3dDRCXPCN-silrct7CJg7rRIi9lA343Q0zqtnXoowYQoWgDWhBmcIC0ew7GNIAgEra1oL4_ZgrrQtbWkmZLUZR6HE0qDazS_GIoCAcMFsVQMhf3riOByxVeJrzz8i3KmJj9ashkd2cRPaU4_Dlf8BkU18IzwI9m00?></g></svg>