<svg xmlns="http://www.w3.org/2000/svg" xmlns:xlink="http://www.w3.org/1999/xlink" contentStyleType="text/css" data-diagram-type="DESCRIPTION" height="578px" preserveAspectRatio="none" style="width:832px;height:578px;background:#FFFFFF;" version="1.1" viewBox="0 0 832 578" width="832px" zoomAndPan="magnify"><?plantuml 1.2026.6?><defs/><g><!--cluster Todo App--><g class="cluster" data-qualified-name="Todo App" data-source-line="2" id="ent0001"><path d="M8.5,6 L84.0596,6 A3.75,3.75 0 0 1 86.5596,8.5 L93.5596,28.2969 L766.5,28.2969 A2.5,2.5 0 0 1 769,30.7969 L769,560.84 A2.5,2.5 0 0 1 766.5,563.34 L8.5,563.34 A2.5,2.5 0 0 1 6,560.84 L6,8.5 A2.5,2.5 0 0 1 8.5,6" fill="none" style="stroke:#000000;stroke-width:1.5;"/><line style="stroke:#000000;stroke-width:1.5;" x1="6" x2="93.5596" y1="28.2969" y2="28.2969"/><text fill="#000000" font-family="sans-serif" font-size="14" font-weight="700" lengthAdjust="spacing" textLength="74.5596" x="10" y="20.9951">Todo App</text></g><!--cluster Components--><g class="cluster" data-qualified-name="Todo App.Components" data-source-line="3" id="ent0002"><path d="M63.5,49 L163.0742,49 A3.75,3.75 0 0 1 165.5742,51.5 L172.5742,71.2969 L737.5,71.2969 A2.5,2.5 0 0 1 740,73.7969 L740,143.8 A2.5,2.5 0 0 1 737.5,146.3 L63.5,146.3 A2.5,2.5 0 0 1 61,143.8 L61,51.5 A2.5,2.5 0 0 1 63.5,49" fill="none" style="stroke:#000000;stroke-width:1.5;"/><line style="stroke:#000000;stroke-width:1.5;" x1="61" x2="172.5742" y1="71.2969" y2="71.2969"/><text fill="#000000" font-family="sans-serif" font-size="14" font-weight="700" lengthAdjust="spacing" textLength="98.5742" x="65" y="63.9951">Components</text></g><!--cluster Modules--><g class="cluster" data-qualified-name="Todo App.Modules" data-source-line="10" id="ent0007"><path d="M32.5,353.3 L99.665,353.3 A3.75,3.75 0 0 1 102.165,355.8 L109.165,375.5969 L742.5,375.5969 A2.5,2.5 0 0 1 745,378.0969 L745,536.84 A2.5,2.5 0 0 1 742.5,539.34 L32.5,539.34 A2.5,2.5 0 0 1 30,536.84 L30,355.8 A2.5,2.5 0 0 1 32.5,353.3" fill="none" style="stroke:#000000;stroke-width:1.5;"/><line style="stroke:#000000;stroke-width:1.5;" x1="30" x2="109.165" y1="375.5969" y2="375.5969"/><text fill="#000000" font-family="sans-serif" font-size="14" font-weight="700" lengthAdjust="spacing" textLength="66.165" x="34" y="368.2951">Modules</text></g><!--cluster Module1--><g class="cluster" data-qualified-name="Todo App.Modules.Module1" data-source-line="11" id="ent0008"><path d="M64.5,404.37 L137.9473,404.37 A3.75,3.75 0 0 1 140.4473,406.87 L147.4473,426.6669 L447.5,426.6669 A2.5,2.5 0 0 1 450,429.1669 L450,504.77 A2.5,2.5 0 0 1 447.5,507.27 L64.5,507.27 A2.5,2.5 0 0 1 62,504.77 L62,406.87 A2.5,2.5 0 0 1 64.5,404.37" fill="none" style="stroke:#000000;stroke-width:1.5;"/><line style="stroke:#000000;stroke-width:1.5;" x1="62" x2="147.4473" y1="426.6669" y2="426.6669"/><text fill="#000000" font-family="sans-serif" font-size="14" font-weight="700" lengthAdjust="spacing" textLength="72.4473" x="66" y="419.3651">Module 1</text></g><!--cluster Module3--><g class="cluster" data-qualified-name="Todo App.Modules.Module3" data-source-line="15" id="ent0011"><path d="M492.5,404.3 L565.9473,404.3 A3.75,3.75 0 0 1 568.4473,406.8 L575.4473,426.5969 L710.5,426.5969 A2.5,2.5 0 0 1 713,429.0969 L713,504.84 A2.5,2.5 0 0 1 710.5,507.34 L492.5,507.34 A2.5,2.5 0 0 1 490,504.84 L490,406.8 A2.5,2.5 0 0 1 492.5,404.3" fill="none" style="stroke:#000000;stroke-width:1.5;"/><line style="stroke:#000000;stroke-width:1.5;" x1="490" x2="575.4473" y1="426.5969" y2="426.5969"/><text fill="#000000" font-family="sans-serif" font-size="14" font-weight="700" lengthAdjust="spacing" textLength="72.4473" x="494" y="419.2951">Module 3</text></g><!--cluster Entities--><g class="cluster" data-qualified-name="Todo App.Entities" data-source-line="21" id="ent0013"><path d="M290.5,200.15 L351.8408,200.15 A3.75,3.75 0 0 1 354.3408,202.65 L361.3408,222.4469 L448.5,222.4469 A2.5,2.5 0 0 1 451,224.9469 L451,296.95 A2.5,2.5 0 0 1 448.5,299.45 L290.5,299.45 A2.5,2.5 0 0 1 288,296.95 L288,202.65 A2.5,2.5 0 0 1 290.5,200.15" fill="none" style="stroke:#000000;stroke-width:1.5;"/><line style="stroke:#000000;stroke-width:1.5;" x1="288" x2="361.3408" y1="222.4469" y2="222.4469"/><text fill="#000000" font-family="sans-serif" font-size="14" font-weight="700" lengthAdjust="spacing" textLength="60.3408" x="292" y="215.1451">Entities</text></g><!--cluster Interfaces--><g class="cluster" data-qualified-name="Todo App.Interfaces" data-source-line="26" id="ent0016"><path d="M559.5,195.3 L640.4326,195.3 A3.75,3.75 0 0 1 642.9326,197.8 L649.9326,217.5969 L649.5,217.5969 A2.5,2.5 0 0 1 652,220.0969 L652,301.8 A2.5,2.5 0 0 1 649.5,304.3 L559.5,304.3 A2.5,2.5 0 0 1 557,301.8 L557,197.8 A2.5,2.5 0 0 1 559.5,195.3" fill="none" style="stroke:#000000;stroke-width:1.5;"/><line style="stroke:#000000;stroke-width:1.5;" x1="557" x2="649.9326" y1="217.5969" y2="217.5969"/><text fill="#000000" font-family="sans-serif" font-size="14" font-weight="700" lengthAdjust="spacing" textLength="79.9326" x="561" y="210.2951">Interfaces</text></g><!--entity CategoryManager--><g class="entity" data-qualified-name="Todo App.Components.CategoryManager" data-source-line="4" id="ent0003"><rect fill="#F1F1F1" height="46.2969" rx="2.5" ry="2.5" style="stroke:#181818;stroke-width:0.5;" width="165.3164" x="77.34" y="84"/><rect fill="#F1F1F1" height="10" style="stroke:#181818;stroke-width:0.5;" width="15" x="222.6564" y="89"/><rect fill="#F1F1F1" height="2" style="stroke:#181818;stroke-width:0.5;" width="4" x="220.6564" y="91"/><rect fill="#F1F1F1" height="2" style="stroke:#181818;stroke-width:0.5;" width="4" x="220.6564" y="95"/><text fill="#000000" font-family="sans-serif" font-size="14" lengthAdjust="spacing" textLength="125.3164" x="92.34" y="116.9951">CategoryManager</text></g><!--entity TaskManager--><g class="entity" data-qualified-name="Todo App.Components.TaskManager" data-source-line="5" id="ent0004"><rect fill="#F1F1F1" height="46.2969" rx="2.5" ry="2.5" style="stroke:#181818;stroke-width:0.5;" width="133.8984" x="278.05" y="84"/><rect fill="#F1F1F1" height="10" style="stroke:#181818;stroke-width:0.5;" width="15" x="391.9484" y="89"/><rect fill="#F1F1F1" height="2" style="stroke:#181818;stroke-width:0.5;" width="4" x="389.9484" y="91"/><rect fill="#F1F1F1" height="2" style="stroke:#181818;stroke-width:0.5;" width="4" x="389.9484" y="95"/><text fill="#000000" font-family="sans-serif" font-size="14" lengthAdjust="spacing" textLength="93.8984" x="293.05" y="116.9951">TaskManager</text></g><!--entity Authenticator--><g class="entity" data-qualified-name="Todo App.Components.Authenticator" data-source-line="6" id="ent0005"><rect fill="#F1F1F1" height="46.2969" rx="2.5" ry="2.5" style="stroke:#181818;stroke-width:0.5;" width="135.7646" x="588.12" y="84"/><rect fill="#F1F1F1" height="10" style="stroke:#181818;stroke-width:0.5;" width="15" x="703.8846" y="89"/><rect fill="#F1F1F1" height="2" style="stroke:#181818;stroke-width:0.5;" width="4" x="701.8846" y="91"/><rect fill="#F1F1F1" height="2" style="stroke:#181818;stroke-width:0.5;" width="4" x="701.8846" y="95"/><text fill="#000000" font-family="sans-serif" font-size="14" lengthAdjust="spacing" textLength="95.7646" x="603.12" y="116.9951">Authenticator</text></g><!--entity Database--><g class="entity" data-qualified-name="Todo App.Components.Database" data-source-line="7" id="ent0006"><rect fill="#F1F1F1" height="46.2969" rx="2.5" ry="2.5" style="stroke:#181818;stroke-width:0.5;" width="106.8008" x="446.6" y="84"/><rect fill="#F1F1F1" height="10" style="stroke:#181818;stroke-width:0.5;" width="15" x="533.4008" y="89"/><rect fill="#F1F1F1" height="2" style="stroke:#181818;stroke-width:0.5;" width="4" x="531.4008" y="91"/><rect fill="#F1F1F1" height="2" style="stroke:#181818;stroke-width:0.5;" width="4" x="531.4008" y="95"/><text fill="#000000" font-family="sans-serif" font-size="14" lengthAdjust="spacing" textLength="66.8008" x="461.6" y="116.9951">Database</text></g><!--entity Create a task--><g class="entity" data-qualified-name="Todo App.Modules.Module1.Create a task" data-source-line="12" id="ent0009"><ellipse cx="150.9959" cy="465.3232" fill="#F1F1F1" rx="65.1159" ry="15.4232" style="stroke:#181818;stroke-width:0.5;"/><text fill="#000000" font-family="sans-serif" font-size="14" lengthAdjust="spacing" textLength="93.7754" x="104.1082" y="469.9716">Create a task</text></g><!--entity Delete a category--><g class="entity" data-qualified-name="Todo App.Modules.Module1.Delete a category" data-source-line="13" id="ent0010"><ellipse cx="329.0037" cy="465.3207" fill="#F1F1F1" rx="77.7537" ry="17.9507" style="stroke:#181818;stroke-width:0.5;"/><text fill="#000000" font-family="sans-serif" font-size="14" lengthAdjust="spacing" textLength="125.3506" x="266.3284" y="469.9692">Delete a category</text></g><!--entity Create a category--><g class="entity" data-qualified-name="Todo App.Modules.Module3.Create a category" data-source-line="16" id="ent0012"><ellipse cx="592.0008" cy="465.3202" fill="#F1F1F1" rx="78.1008" ry="18.0202" style="stroke:#181818;stroke-width:0.5;"/><text fill="#000000" font-family="sans-serif" font-size="14" lengthAdjust="spacing" textLength="126.1777" x="528.9119" y="469.9686">Create a category</text></g><!--entity Task--><g class="entity" data-qualified-name="Todo App.Entities.Task" data-source-line="22" id="ent0014"><ellipse cx="319.9961" cy="251.15" fill="#F1F1F1" rx="12" ry="12" style="stroke:#181818;stroke-width:0.5;"/><line style="stroke:#181818;stroke-width:0.5;" x1="307.9961" x2="331.9961" y1="265.15" y2="265.15"/><text fill="#000000" font-family="sans-serif" font-size="14" lengthAdjust="spacing" textLength="32.5322" x="303.73" y="280.1451">Task</text></g><!--entity Category--><g class="entity" data-qualified-name="Todo App.Entities.Category" data-source-line="23" id="ent0015"><ellipse cx="402.9951" cy="251.15" fill="#F1F1F1" rx="12" ry="12" style="stroke:#181818;stroke-width:0.5;"/><line style="stroke:#181818;stroke-width:0.5;" x1="390.9951" x2="414.9951" y1="265.15" y2="265.15"/><text fill="#000000" font-family="sans-serif" font-size="14" lengthAdjust="spacing" textLength="63.9502" x="371.02" y="280.1451">Category</text></g><!--entity User--><g class="entity" data-qualified-name="Todo App.Interfaces.User" data-source-line="27" id="ent0017"><ellipse cx="604" cy="259.3" fill="#F1F1F1" rx="8" ry="8" style="stroke:#181818;stroke-width:0.5;"/><text fill="#000000" font-family="sans-serif" font-size="14" lengthAdjust="spacing" textLength="31.9102" x="588.0449" y="289.2951">User</text></g><!--link CategoryManager to Task--><g class="link" data-entity-1="ent0003" data-entity-2="ent0014" data-link-type="dependency" data-source-line="31" id="lnk18"><path d="M149.41,130.53 C143.75,146.14 140.12,166.42 152,179.3 C166.97,195.52 231.03,177.9 251,187.3 C273.08,197.7 288.8868,214.42 301.2568,230.8" fill="none" id="CategoryManager-to-Task" style="stroke:#181818;stroke-width:1;stroke-dasharray:7,7;"/><polygon fill="#181818" points="304.27,234.79,302.0382,225.1973,301.2568,230.8,295.6541,230.0185,304.27,234.79" style="stroke:#181818;stroke-width:1;stroke-linejoin:miter;stroke-miterlimit:10;"/><text fill="#000000" font-family="sans-serif" font-size="13" lengthAdjust="spacing" textLength="59.8584" x="153" y="175.3669">manages</text></g><!--link CategoryManager to Category--><g class="link" data-entity-1="ent0003" data-entity-2="ent0015" data-link-type="dependency" data-source-line="32" id="lnk19"><path d="M205.65,130.77 C222.77,138.78 242.55,147.49 261,154.3 C273.14,158.78 277,157.46 289,162.3 C303.94,168.32 305.95,173.58 321,179.3 C335.11,184.66 341.56,178.75 354,187.3 C371.15,199.09 381.8044,214.5838 390.0744,230.3238" fill="none" id="CategoryManager-to-Category" style="stroke:#181818;stroke-width:1;stroke-dasharray:7,7;"/><polygon fill="#181818" points="392.4,234.75,391.7549,224.9223,390.0744,230.3238,384.6729,228.6433,392.4,234.75" style="stroke:#181818;stroke-width:1;stroke-linejoin:miter;stroke-miterlimit:10;"/><text fill="#000000" font-family="sans-serif" font-size="13" lengthAdjust="spacing" textLength="59.8584" x="322" y="175.3669">manages</text></g><!--link TaskManager to Task--><g class="link" data-entity-1="ent0004" data-entity-2="ent0014" data-link-type="dependency" data-source-line="34" id="lnk20"><path d="M308.82,130.69 C294.11,139.08 276.67,148.06 260,154.3 C244.65,160.04 234.26,149.51 224,162.3 C219.27,168.19 219.48,173.25 224,179.3 C231.49,189.33 240.29,180.82 251,187.3 C271.74,199.84 287.4073,216.2292 300.1373,231.8992" fill="none" id="TaskManager-to-Task" style="stroke:#181818;stroke-width:1;stroke-dasharray:7,7;"/><polygon fill="#181818" points="303.29,235.78,300.7198,226.2724,300.1373,231.8992,294.5105,231.3167,303.29,235.78" style="stroke:#181818;stroke-width:1;stroke-linejoin:miter;stroke-miterlimit:10;"/><text fill="#000000" font-family="sans-serif" font-size="13" lengthAdjust="spacing" textLength="59.8584" x="225" y="175.3669">manages</text></g><!--link TaskManager to Category--><g class="link" data-entity-1="ent0004" data-entity-2="ent0015" data-link-type="dependency" data-source-line="35" id="lnk21"><path d="M368.58,130.71 C376.66,139.76 384.94,150.77 390,162.3 C400.22,185.55 402.7779,209.7715 403.2679,229.8315" fill="none" id="TaskManager-to-Category" style="stroke:#181818;stroke-width:1;stroke-dasharray:7,7;"/><polygon fill="#181818" points="403.39,234.83,407.169,225.735,403.2679,229.8315,399.1714,225.9304,403.39,234.83" style="stroke:#181818;stroke-width:1;stroke-linejoin:miter;stroke-miterlimit:10;"/><text fill="#000000" font-family="sans-serif" font-size="13" lengthAdjust="spacing" textLength="29.7832" x="396.35" y="175.3669">uses</text></g><!--link Authenticator to User--><g class="link" data-entity-1="ent0005" data-entity-2="ent0017" data-link-type="dependency" data-source-line="37" id="lnk22"><path d="M648.22,130.63 C636.37,164.83 616.0361,223.5552 608.3661,245.7052" fill="none" id="Authenticator-to-User" style="stroke:#181818;stroke-width:1;stroke-dasharray:7,7;"/><polygon fill="#181818" points="606.73,250.43,613.4547,243.2343,608.3661,245.7052,605.8951,240.6166,606.73,250.43" style="stroke:#181818;stroke-width:1;stroke-linejoin:miter;stroke-miterlimit:10;"/><text fill="#000000" font-family="sans-serif" font-size="13" lengthAdjust="spacing" textLength="89.4702" x="637.19" y="175.3669">authenticates</text></g><!--link Database to Category--><g class="link" data-entity-1="ent0006" data-entity-2="ent0015" data-link-type="extension" data-source-line="39" id="lnk23"><path d="M526.72,130.54 C540.06,144.53 551.52,162.93 542,179.3 C519.18,218.53 486.0116,234.5685 452.5916,244.8685" fill="none" id="Database-to-Category" style="stroke:#181818;stroke-width:1;stroke-dasharray:7,7;"/><polygon fill="none" points="435.39,250.17,454.3587,250.6024,450.8244,239.1346,435.39,250.17" style="stroke:#181818;stroke-width:1;stroke-linejoin:miter;stroke-miterlimit:10;"/><text fill="#000000" font-family="sans-serif" font-size="13" lengthAdjust="spacing" textLength="39.9395" x="546.5" y="175.3669">stores</text></g><!--link Database to Task--><g class="link" data-entity-1="ent0006" data-entity-2="ent0014" data-link-type="extension" data-source-line="40" id="lnk24"><path d="M485.87,130.55 C474.15,147.04 455.88,168.43 434,179.3 C402,195.2 383.25,166.77 354,187.3 C338.23,198.37 334.4918,201.4831 329.8518,217.5931" fill="none" id="Database-to-Task" style="stroke:#181818;stroke-width:1;stroke-dasharray:7,7;"/><polygon fill="none" points="324.87,234.89,335.6175,219.2538,324.0862,215.9325,324.87,234.89" style="stroke:#181818;stroke-width:1;stroke-linejoin:miter;stroke-miterlimit:10;"/><text fill="#000000" font-family="sans-serif" font-size="13" lengthAdjust="spacing" textLength="39.9395" x="458.69" y="175.3669">stores</text></g><!--reverse link TaskManager to Module1--><g class="link" data-entity-1="ent0004" data-entity-2="ent0008" data-link-type="dependency" data-source-line="42" id="lnk26"><path d="M305.4699,133.1501 C290.6099,141.7301 277.14,148.37 260,154.3 C239.97,161.23 226.67,146.11 213,162.3 C199,178.88 132.97,210.71 231,312.3 C291.12,374.61 362.14,283.71 423,345.3 C432.265,354.6775 438.1206,366.6475 441.6838,379.3661 C443.4653,385.7254 444.6738,392.2718 445.4487,398.7749 C445.6424,400.4007 445.809,402.0238 445.9508,403.6405 C445.9685,403.8426 445.9858,426.3415 446.0027,426.5434" fill="none" id="TaskManager-backto-Module1" style="stroke:#181818;stroke-width:1;"/><polygon fill="#181818" points="309.8,130.65,300.0058,131.6862,305.4699,133.1501,304.006,138.6143,309.8,130.65" style="stroke:#181818;stroke-width:1;stroke-linejoin:miter;stroke-miterlimit:10;"/><text fill="#000000" font-family="sans-serif" font-size="13" lengthAdjust="spacing" textLength="55.0278" x="232" y="263.8669">contains</text></g><!--reverse link CategoryManager to Module3--><g class="link" data-entity-1="ent0003" data-entity-2="ent0011" data-link-type="dependency" data-source-line="43" id="lnk28"><path d="M140.8934,134.638 C112.7534,176.128 65.25,261.34 113,312.3 C142.24,343.5 454.3,335.01 497,337.3 C507.49,337.86 678.15,338.31 686,345.3 C695.845,354.065 701.995,365.7244 705.6725,378.3227 C707.5113,384.6218 708.7319,391.1557 709.4872,397.6798 C709.676,399.3109 709.8358,400.9413 709.9688,402.5673 C710.0021,402.9738 710.0337,425.6769 710.0636,426.0828" fill="none" id="CategoryManager-backto-Module3" style="stroke:#181818;stroke-width:1;"/><polygon fill="#181818" points="143.7,130.5,135.3378,135.7032,140.8934,134.638,141.9586,140.1937,143.7,130.5" style="stroke:#181818;stroke-width:1;stroke-linejoin:miter;stroke-miterlimit:10;"/><text fill="#000000" font-family="sans-serif" font-size="13" lengthAdjust="spacing" textLength="55.0278" x="114" y="263.8669">contains</text></g><!--link User to Module1--><g class="link" data-entity-1="ent0017" data-entity-2="ent0008" data-link-type="composition" data-source-line="45" id="lnk29"><path d="M595.1,265.33 C575.18,276.98 526.53,307.73 498,345.3 C480.595,368.215 466.7575,397.405 457.1925,421.1425 C454.8013,427.0769 452.677,432.6705 450.8309,437.74 C450.6001,438.3737 454.4376,427.7083 454.2155,428.3253" fill="none" id="User-to-Module1" style="stroke:#181818;stroke-width:1;"/><polygon fill="#181818" points="450.1516,439.6162,455.9472,435.3254,454.2155,428.3253,448.4199,432.6161,450.1516,439.6162" style="stroke:#181818;stroke-width:1;stroke-linejoin:miter;stroke-miterlimit:10;"/><text fill="#000000" font-family="sans-serif" font-size="13" lengthAdjust="spacing" textLength="113.1597" x="521.33" y="333.3669">performs tasks in</text><text fill="#000000" font-family="sans-serif" font-size="13" lengthAdjust="spacing" textLength="8.271" x="434.02" y="461.3369">1</text></g><!--link User to Module3--><g class="link" data-entity-1="ent0017" data-entity-2="ent0011" data-link-type="composition" data-source-line="46" id="lnk30"><path d="M608.71,268.08 C618.22,283.22 641.11,316.95 668,337.3 C674.98,342.58 680.66,338.36 686,345.3 C694.035,355.75 699.2662,368.265 702.587,381.1956 C704.2474,387.6609 705.4302,394.2302 706.247,400.6971 C706.3491,401.5055 706.4455,402.3122 706.5364,403.117 C706.5591,403.3182 705.2733,413.8877 705.2953,414.0886" fill="none" id="User-to-Module3" style="stroke:#181818;stroke-width:1;"/><polygon fill="#181818" points="706.6035,426.0171,709.9256,419.6168,705.2953,414.0886,701.9733,420.4889,706.6035,426.0171" style="stroke:#181818;stroke-width:1;stroke-linejoin:miter;stroke-miterlimit:10;"/><text fill="#000000" font-family="sans-serif" font-size="13" lengthAdjust="spacing" textLength="147.1641" x="669" y="333.3669">performs categories in</text><text fill="#000000" font-family="sans-serif" font-size="13" lengthAdjust="spacing" textLength="8.271" x="697.01" y="461.3269">1</text></g><?plantuml-src bPEzRiCW4CTtdkB4MCcH8cyP8aLDXmxPaWUu4ffQYGqoU8ZQl7iF30qGggfCvkvtd_ojKPpn987lrL71HciEdmpewEXuLhrMWnoiYIvtHBGIW5QUr7ZTuK018mSqKDXgONiqvpGakTVmpMG_wACJQDKSa5bg8Lkq-8P6UZfUF7XZ-OmxTPmkCXkmyC7IPvalouHpPp9IK6fQnIXfS42mD0olCrjvaPuHOKTtxlPhzJQftlvP_J7p_peer_D2MxPTlX-tUNkTd_7d_HwyKGUPAAerNWShntSKUPKkMe4VJ12A-mWfA4cXD5WirhuLM47lJQQAH5k2iKI1jJIbEqb1gwNuJ90USQsI6-yEnqKf4lALfJ4KHq3k3rq47uiAR2RThDEVXXYX1elTO5WKoWoLyoSWynqspHDm4dZClG9DMrTZRxoG3Jr33MnJC6Y9LEBeRm00?></g></svg>